<svg version="1.1" xmlns="http://www.w3.org/2000/svg" style="display: block;" viewBox="0 0 2048 2048" width="1024" height="1024" preserveAspectRatio="none">
<defs>
	<linearGradient id="Gradient1" gradientUnits="userSpaceOnUse" x1="1482.94" y1="1070.37" x2="1475.21" y2="816.506">
		<stop class="stop0" offset="0" stop-opacity="1" stop-color="rgb(0,106,255)"/>
		<stop class="stop1" offset="1" stop-opacity="1" stop-color="rgb(0,165,255)"/>
	</linearGradient>
	<linearGradient id="Gradient2" gradientUnits="userSpaceOnUse" x1="571.603" y1="1069.81" x2="560.49" y2="816.321">
		<stop class="stop0" offset="0" stop-opacity="1" stop-color="rgb(0,106,255)"/>
		<stop class="stop1" offset="1" stop-opacity="1" stop-color="rgb(0,165,255)"/>
	</linearGradient>
	<linearGradient id="Gradient3" gradientUnits="userSpaceOnUse" x1="656.285" y1="1133.81" x2="676.523" y2="750.812">
		<stop class="stop0" offset="0" stop-opacity="1" stop-color="rgb(0,95,255)"/>
		<stop class="stop1" offset="1" stop-opacity="1" stop-color="rgb(0,175,255)"/>
	</linearGradient>
	<linearGradient id="Gradient4" gradientUnits="userSpaceOnUse" x1="1393.72" y1="1134.28" x2="1363.58" y2="750.541">
		<stop class="stop0" offset="0" stop-opacity="1" stop-color="rgb(0,94,255)"/>
		<stop class="stop1" offset="1" stop-opacity="1" stop-color="rgb(0,174,255)"/>
	</linearGradient>
	<linearGradient id="Gradient5" gradientUnits="userSpaceOnUse" x1="1029.52" y1="1260.33" x2="1023.22" y2="661.431">
		<stop class="stop0" offset="0" stop-opacity="1" stop-color="rgb(0,85,255)"/>
		<stop class="stop1" offset="1" stop-opacity="1" stop-color="rgb(0,179,255)"/>
	</linearGradient>
</defs>
<path transform="translate(0,0)" fill="url(#Gradient5)" d="M 782.053 662.309 C 790.903 661.273 821.388 661.959 831.803 661.973 L 931.533 662.043 L 1254.28 661.82 C 1265.6 661.869 1278.1 662.565 1286.34 671.508 C 1291.75 677.381 1294.41 684.927 1294.01 692.884 C 1293.27 707.643 1282.69 724.232 1276.5 737.53 C 1270.85 749.671 1263.45 771.302 1252.7 779.415 C 1237.13 791.169 1124.85 779.168 1095.31 785.213 C 1090.18 786.264 1086.38 787.725 1082.61 791.372 C 1077.67 796.141 1076.69 802.337 1075.93 808.933 C 1074.72 819.315 1075.23 830.198 1075.23 840.648 L 1075.21 892.678 L 1075.17 1068.81 C 1075.2 1089.87 1077.78 1245.31 1073.53 1254.24 C 1071.78 1257.93 1068.95 1260.58 1064.98 1261.68 C 1059.47 1263.19 1053.01 1261.6 1048.21 1258.7 C 1041.82 1254.85 1035.63 1247.54 1029.96 1242.54 C 1013.99 1228.45 996.817 1214.76 981.818 1199.69 C 978.962 1196.82 975.798 1193.46 974.067 1189.79 C 971.853 1185.09 971.293 1178.62 971.018 1173.45 C 969.221 1139.68 970.891 1104.92 970.902 1071.04 L 970.799 877.29 C 970.824 853.306 972.516 824.131 969.531 800.474 C 967.039 780.733 930.922 783.899 915.86 783.922 L 846.311 784.174 C 833.919 784.236 820.686 785.204 808.383 783.872 C 804.65 783.467 800.612 782.674 797.444 780.542 C 787.47 773.829 758.334 711.636 755.864 698.012 C 754.32 689.488 755.979 680.52 761.204 673.503 C 766.303 666.655 773.87 663.477 782.053 662.309 z"/>
<path transform="translate(0,0)" fill="url(#Gradient4)" d="M 1347.2 750.386 C 1366.47 750.383 1400.9 748.197 1419.23 752.975 C 1428.75 755.456 1426.08 787.055 1426.07 796.971 L 1425.94 871.048 L 1425.99 1048.32 C 1426 1071.04 1425.9 1093.7 1426.53 1116.42 C 1426.84 1127.36 1422.5 1132.75 1412.22 1135.03 C 1390.74 1135.17 1361.97 1137.23 1341.07 1132.81 C 1331.26 1130.74 1332.78 1110.07 1332.79 1102.03 C 1332.79 1071.9 1332.87 1041.6 1332.88 1011.38 L 1332.81 853.381 C 1332.8 825.401 1332.71 797.423 1332.92 769.446 C 1333 758.324 1335.22 752.365 1347.2 750.386 z"/>
<path transform="translate(0,0)" fill="url(#Gradient3)" d="M 635.282 750.384 C 653.155 750.51 670.955 750.179 688.813 750.153 C 696.23 750.142 704.723 750.825 710.103 756.36 C 711.221 761.75 711.871 767.227 712.044 772.729 C 713.462 808.551 712.054 854.351 712.091 890.885 L 712.082 1021.07 C 712.186 1050.36 714.283 1095.93 711.132 1126.47 C 710.769 1129.98 705.473 1132.81 702.359 1134.51 C 685.802 1136.38 642.586 1136.72 627.435 1131.61 C 618.338 1128.54 621.036 1080.03 621.032 1069.57 L 621.016 983.966 L 620.927 842.37 C 620.912 817.338 620.741 792.28 621.11 767.255 C 621.262 756.919 625.351 752.139 635.282 750.384 z"/>
<path transform="translate(0,0)" fill="url(#Gradient2)" d="M 546.71 815.28 C 559.292 815.23 582.328 813.38 593.47 817.936 C 595.899 818.93 597.551 820.758 598.053 823.392 C 601.168 839.709 600 861.344 599.986 878.222 L 600.003 957.104 L 599.998 1023.1 C 599.994 1034.64 600.225 1046.31 599.703 1057.82 C 599.341 1065.8 595.912 1070.27 588.238 1072.02 C 574.603 1072.05 560.973 1072.8 547.325 1071.78 C 538.217 1071.09 533.926 1064.02 533.453 1055.43 C 532.679 1041.33 533.028 1027.04 533.063 1012.9 L 533.053 943.524 L 532.972 871.982 C 532.961 858.094 532.397 838.12 534.265 824.81 C 538.595 818.568 539.473 817.288 546.71 815.28 z"/>
<path transform="translate(0,0)" fill="url(#Gradient1)" d="M 1458.33 815.239 C 1471.91 815.295 1489.86 812.647 1502.8 816.903 C 1506.56 818.139 1509.26 820.743 1510.77 824.423 C 1512.82 829.434 1513.11 1038.66 1512.07 1058.54 C 1511.95 1060.85 1511.62 1063.58 1510.39 1065.62 C 1508.09 1069.44 1505.35 1070.65 1501.23 1071.97 C 1490.32 1072.17 1457.43 1074.98 1451.51 1067.26 C 1445.83 1059.85 1447.91 1018.82 1447.92 1008.76 L 1447.96 913.722 L 1447.92 856.65 C 1447.92 847.164 1447.56 836.131 1448.53 826.785 C 1449.08 821.559 1454.23 817.903 1458.33 815.239 z"/>
<path transform="translate(0,0)" fill="rgb(0,140,254)" d="M 739.163 901.833 C 780.821 903.034 823.094 900.276 864.699 902.673 C 870.515 903.008 873.707 908.019 876.861 912.214 C 877.638 929.985 878.339 958.015 876.075 975.87 C 875.872 977.476 873.28 981.248 872.236 982.72 C 861.286 989.045 824.809 986.848 810.635 986.895 C 787.5 986.971 762.185 987.369 739.139 986.013 C 738.967 957.953 738.975 929.892 739.163 901.833 z"/>
<path transform="translate(0,0)" fill="rgb(0,140,254)" d="M 1184.13 902.165 C 1219.68 900.504 1269.27 901.96 1306.23 902.001 C 1305.89 929.999 1305.84 958 1306.05 986 C 1301.6 986.568 1296.77 986.435 1292.25 986.459 C 1272.82 986.857 1193.42 989.807 1180.22 984.06 C 1176.42 982.405 1174.42 980.236 1173.14 976.237 C 1170.5 968.007 1172.31 958.847 1172.2 950.34 C 1172.05 937.748 1168.21 919.895 1174.85 908.44 C 1177.08 904.593 1180.02 903.368 1184.13 902.165 z"/>
</svg>